<svg width="25" height="24" fill="none" xmlns="http://www.w3.org/2000/svg"><g clip-path="url(#clip0_281_20)"><path d="M21.632 0H3.37C1.51 0 0 1.424 0 3.182v17.247c0 1.758 1.508 3.182 3.369 3.182h9.007l.015-8.437H10.07a.534.534 0 01-.548-.515l-.01-2.72c-.002-.287.244-.52.547-.52h2.317V8.793c0-3.05 1.972-4.71 4.852-4.71h2.364c.302 0 .548.231.548.517v2.293c0 .286-.245.517-.548.517h-1.45c-1.567 0-1.87.704-1.87 1.736v2.275h3.442c.328 0 .582.27.544.578l-.341 2.72a.538.538 0 01-.544.456h-3.086l-.015 8.437h5.36c1.86 0 3.368-1.424 3.368-3.181V3.181C25 1.424 23.492 0 21.632 0z" fill="#fff"/></g><defs><clipPath id="clip0_281_20"><path fill="#fff" d="M0 0h25v23.611H0z"/></clipPath></defs></svg>