<svg width="25" height="24" fill="none" xmlns="http://www.w3.org/2000/svg"><g clip-path="url(#clip0_281_37)" fill="#fff"><path d="M21.338 0H3.662C1.643 0 0 1.552 0 3.459v16.694c0 1.906 1.643 3.458 3.662 3.458h17.676c2.019 0 3.662-1.552 3.662-3.459V3.46C25 1.552 23.357 0 21.338 0zm-8.79 17.985c-3.634 0-6.591-2.793-6.591-6.226 0-3.432 2.957-6.225 6.592-6.225s6.592 2.793 6.592 6.225c0 3.433-2.957 6.226-6.592 6.226zm7.325-11.068c-1.212 0-2.197-.93-2.197-2.075 0-1.144.986-2.075 2.197-2.075 1.212 0 2.197.93 2.197 2.075 0 1.144-.985 2.075-2.197 2.075z"/><path d="M19.873 4.15c-.404 0-.732.31-.732.692 0 .382.328.692.732.692.404 0 .732-.31.732-.692 0-.382-.328-.692-.732-.692zm-7.324 2.767c-2.827 0-5.127 2.173-5.127 4.843s2.3 4.842 5.127 4.842 5.127-2.173 5.127-4.842c0-2.67-2.3-4.843-5.127-4.843z"/></g><defs><clipPath id="clip0_281_37"><path fill="#fff" d="M0 0h25v23.611H0z"/></clipPath></defs></svg>