<svg width="25" height="24" fill="none" xmlns="http://www.w3.org/2000/svg"><g clip-path="url(#clip0_281_41)"><path d="M21.338 0H3.662C1.643 0 0 1.552 0 3.459v16.694c0 1.906 1.643 3.458 3.662 3.458h17.676c2.019 0 3.662-1.552 3.662-3.459V3.46C25 1.552 23.357 0 21.338 0zm-12.5 18.723h-2.93V9.039h2.93v9.684zm0-11.068h-2.93V4.888h2.93v2.767zm10.254 11.068h-2.93v-5.534c0-.763-.657-1.383-1.465-1.383-.807 0-1.465.62-1.465 1.383v5.534h-2.93V9.039h2.93v.521c.768-.225 1.268-.52 2.198-.52 1.987.002 3.662 1.685 3.662 3.675v6.009z" fill="#fff"/></g><defs><clipPath id="clip0_281_41"><path fill="#fff" d="M0 0h25v23.611H0z"/></clipPath></defs></svg>